<svg version="1.1" id="face_x5F_citrouille" xmlns="http://www.w3.org/2000/svg" x="0" y="0" viewBox="0 0 264.2 257" xml:space="preserve">
  <style>
    .st0{fill:#00020e}
  </style>
  <g id="XMLID_12_">
    <path id="XMLID_157_" class="st0" d="M125.9 124.8l-44.3-22.3c-6.2 12.2-1.3 27.1 11 33.3s27.2 1.2 33.3-11z"/>
    <path id="XMLID_158_" class="st0" d="M171.6 135.7c12.2-6.2 17.1-21.1 11-33.3l-44.3 22.3c6.1 12.3 21 17.2 33.3 11z"/>
    <path id="XMLID_174_" class="st0" d="M64.5 7.7c-10.3-10.3-27-10.3-37.3 0-3.5 3.5-5.9 7.8-7 12.4-4.7 1.1-9 3.5-12.4 7-10.3 10.3-10.3 27 0 37.3 8.1 8.1 20.2 9.9 30.1 5.1l19.2 19.2c-4.8 10.5-7.6 22.2-7.6 34.5 0 18.7 6.3 32.1 19 40.7l-23.4 23.4c-9.9-4.8-22-3-30.1 5.1-10.3 10.3-10.3 27 0 37.3 3.5 3.5 7.8 5.9 12.4 7 1.1 4.7 3.5 9 7 12.4 5.1 5.1 11.9 7.7 18.7 7.7 6.8 0 13.5-2.6 18.7-7.7 8.1-8.1 9.9-20.2 5.1-30.1l16.9-16.9c4 4.4 9.8 7.1 16.2 7.1h44.4c6.4 0 12.2-2.8 16.2-7.1l16.9 16.9c-4.8 9.9-3 22 5.1 30.1 5.1 5.1 11.9 7.7 18.7 7.7 6.8 0 13.5-2.6 18.7-7.7 3.5-3.5 5.9-7.8 7-12.4 4.7-1.1 9-3.5 12.4-7 10.3-10.3 10.3-27 0-37.3-8.1-8.1-20.2-9.9-30.1-5.1L195.8 164c12.7-8.6 19-22.1 19-40.7 0-12.3-2.7-24-7.6-34.5l19.2-19.2c9.9 4.8 22 3 30.1-5.1 10.3-10.3 10.3-27 0-37.3-3.5-3.5-7.8-5.9-12.4-7-1.1-4.7-3.5-9-7-12.4-10.3-10.3-27-10.3-37.3 0-8.1 8.1-9.9 20.2-5.1 30.1L178 54.6c-13.1-8.8-28.9-13.9-45.8-13.9s-32.7 5.1-45.8 13.9L69.6 37.9c4.8-9.9 3-22-5.1-30.2zm-5.4 210l3.9 4.7c4.2 5.1 3.8 12.5-.9 17.2-5 5-13.2 5-18.2 0-2.4-2.4-3.7-5.6-3.8-9L40 224l-6.6-.1c-3.4 0-6.6-1.4-9-3.8-5-5-5-13.2 0-18.2 2.5-2.5 5.8-3.8 9.1-3.8 2.9 0 5.8 1 8.1 2.9l4.7 3.9 34.8-34.8c2.1.7 4.3 1.4 6.6 1.9v15c0 .5 0 1.1.1 1.6l-28.7 29.1zm158.6-12.6l4.7-3.9c5.1-4.2 12.5-3.8 17.2.9 5 5 5 13.2 0 18.2-2.4 2.4-5.6 3.7-9 3.8l-6.6.1-.1 6.6c0 3.4-1.4 6.6-3.8 9-5 5-13.2 5-18.2 0-4.7-4.7-5.1-12.1-.9-17.2l3.9-4.7-28.8-28.8c0-.5.1-1.1.1-1.6v-15c2.3-.6 4.5-1.2 6.6-1.9l34.9 34.5zm-5.4-165.8l-3.9-4.7c-4.2-5.1-3.8-12.5.9-17.2 5-5 13.2-5 18.2 0 2.4 2.4 3.7 5.6 3.8 9l.1 6.6 6.6.1c3.4 0 6.6 1.4 9 3.8 5 5 5 13.2 0 18.2-4.7 4.7-12.1 5.1-17.2.9l-4.7-3.9-24.7 24.7c-2.9-4.2-6.1-8.1-9.7-11.7-.6-.6-1.2-1.3-1.9-1.9l23.5-23.9zM85.5 72.4l.4-.4c.7-.6 1.3-1.2 2-1.7.2-.2.5-.4.7-.6 11.9-9.7 27-15.5 43.5-15.5s31.6 5.8 43.5 15.5c.3.2.5.4.7.6.7.6 1.3 1.1 2 1.7l.4.4c13.8 12.6 22.4 30.8 22.4 50.9 0 16.4-5.3 26.5-17.8 32.4l-.6.3c-.3.1-.7.3-1 .4-.8.4-1.7.7-2.6 1-.3.1-.6.2-.8.3-.8.3-1.6.5-2.4.8-.6.2-1.2.3-1.8.5-.6.2-1.2.3-1.8.5-1.3.3-2.6.6-4 .8l-5.5 1v26.1c0 .5-.1.9-.1 1.4 0 .2-.1.4-.1.6-.9 3.7-4.3 6.5-8.3 6.5h-2.6v-16.4h-13.6v16.4h-12v-16.4h-13.6v16.4h-2.6c-4 0-7.3-2.8-8.3-6.5-.1-.2-.1-.4-.1-.6-.1-.5-.1-.9-.1-1.4v-26.1l-5.5-1c-1.4-.3-2.7-.5-4-.8-.6-.1-1.2-.3-1.8-.5-.6-.2-1.2-.3-1.8-.5-.8-.2-1.6-.5-2.4-.8-.3-.1-.6-.2-.8-.3-.9-.3-1.8-.7-2.6-1-.3-.1-.7-.3-1-.4l-.6-.3c-12.5-5.8-17.8-16-17.8-32.4-.1-20.1 8.6-38.3 22.4-50.9zM75.6 63c-.6.6-1.3 1.2-1.9 1.9-3.6 3.6-6.9 7.5-9.7 11.7L39.3 51.9l-4.7 3.9c-5.2 4.2-12.6 3.8-17.3-.9-5-5-5-13.2 0-18.2 2.4-2.4 5.6-3.7 9-3.8l6.6-.1.1-6.6c0-3.4 1.4-6.6 3.8-9 5-5 13.2-5 18.2 0 4.7 4.7 5.1 12.1.9 17.2L52 39.1 75.6 63z"/>
  </g>
</svg>
