<svg xmlns="http://www.w3.org/2000/svg" xmlns:xlink="http://www.w3.org/1999/xlink" viewBox="0 0 600 250.9">
  <path d="M530.6 96.3h-.6c-3.5-32.6-40.2-59.5-86.2-61.6-19.8-.9-38.3 3-53.4 10.3C381.8 20.6 352.2 1.7 316 .1c-40-1.8-74 18.2-80.7 45.9-8.8-4.3-19.2-7.1-30.4-7.6C172 37 144.5 55.1 143.4 79v.2c-8.1-4.9-18.2-8.2-29.5-8.7C89.8 69.4 69.2 81 64 97.3c-2-.2-4-.4-6-.5C27.9 95.5 2.6 112.1 1.7 134c-1 21.9 22.7 40.7 52.8 42 7.8.3 15.3-.5 22.1-2.4 8.2 11 23.6 18.8 41.8 19.7 13.3.6 25.6-2.7 34.8-8.6 11.4 11.1 29.1 18.6 49.3 19.5 8.8.4 17.2-.5 25-2.5 13.3 19.9 40.8 34.3 73 35.7 38.7 1.7 72.1-15.7 83.2-41 4.2 1 8.5 1.8 13.1 2 16.3.7 30.9-4.4 40.3-12.8 8.1 4.9 18.2 8.2 29.5 8.7 17.4.8 33-5.1 42.3-14.6 5.6 1.6 11.6 2.5 17.9 2.8 32.9 1.5 60.4-16.7 61.5-40.5 1-23.8-24.8-44.3-57.7-45.7z" fill="#004a6f"/>
</svg>
