<svg xmlns="http://www.w3.org/2000/svg" viewBox="0 0 224.6 306">
  <path d="M188.7 114.9l35.9-5.1-5.4-38.4-36.2 5.1c-10.8-24.9-34.5-42.1-61.6-44.6L116.9 0 78.5 5.4l4.7 33.1C60.1 49.2 43.8 71.3 40.6 96.7L0 102.4l5.4 38.4 40.3-5.7c10 23.9 31.9 40.9 57.4 44.9L121 306l38.4-5.4-17.6-124.9c25.5-10 43.7-33.6 46.9-60.8zm-29.7-35l-30.2 4.3-4-28.6c14.3 2.9 26.8 11.8 34.2 24.3zM86.6 62.8l3.8 26.8-25.9 3.7c3.3-12.6 11.3-23.5 22.1-30.5zm-16.9 68.9l26.2-3.7 3.9 27.6c-12.7-3.8-23.6-12.4-30.1-23.9zm68.7 20.3l-4.2-29.4 30.5-4.3c-3.4 14.4-13.1 26.8-26.3 33.7z" fill="#00020e"/>
</svg>
