<svg xmlns="http://www.w3.org/2000/svg" viewBox="0 0 206.6 487.4">
  <path d="M201.7 52.6h-15.8l-12 12.7-4.5-2.5s-17.3 7.4-18 7c-.6-.5-1.1-1.2-1.4-2.3l2-13.4-1.7-1.8 3.6-6.9-5.4 6.8-1 10.8c-4.5 14.9-10.6 28.6-25.6 36.1-1.3.7-2.8 1-6.5 2.3 6.7-16.7 8.4-34.2 15.8-49.2l9.4-11.8 31.1-6.3s7.2-5.5 8.1-6.5c.9-1 20-2.5 20-2.5l2.5-3.5h-22.5l-8.8 7.1s-16.1 2.9-16.9 2.4c-.7-.5-5.7-4.7-5.7-4.7l-4.4 1.4h-1.7l5.3-6.8 8.7.2 5.1 5.3h1.7l-5.1-7.1-8.6-1.9 7.1-5.1.1-3.5-14.1 8.4 1.7 3.5-7.1 6.8 1.6 7s-9.2 8.9-11.9 10c-.3.1-.6.1-.9.1h-.3l.8-7-3.4-5.3.2-8.7-1.9 8.6 1.6 7-5.6 30.1c-5.2 22.2-9.9 44.6-26.3 62.5-2.9 3.1-5.6 9.1-10 7.1-3.9-1.7-2.5-7.9-2.8-12.3-.9-13.3 2.1-25.4 8.9-36.9 10-16.7 14.8-34.4 11.2-53.4l-4.5-21.9-1.8 1.8 1.5 12.2-3.4-3.5-5.2-.1 1.7 1.8 3.5.1s1.3 14.8 3 15.6c.2 3.1.4 6.3-.9 9.1C89 63.8 86.6 76.4 76 89.2c-1.3-16.4-2.5-30.6-3.6-44.7l.1-5.9-2.5-3L68.3 21l-15.8-5.3L42 0v5.3l5.3 10.5 15.8 10.5s3.5 14.1 4.4 18.1l1.4 13.1.1-.1c.2 2.1.5 4.1.4 6.2-1.9 13.4-3.2 26.8-4 40.3L36.5 79.5l-4-32.8H15.4l14 4.8 3.1 30.7 32 37.3c-.4 11.9-.6 23.9-.5 35.9.2 12 1.2 24 1.7 36 .2 4.3 1.1 9.6-4.1 11.4-4.7 1.6-6.6-3.5-9.3-6.1-4-3.8-7.8-7.8-11.7-11.7l-14.2-16.8-21-5.3L0 152.4v5.3l5.3 10.5 15.8 5.3L40.2 193c17.5 21.1 25.7 45.6 25.2 74.2-.4 24.9 4.5 50 2.9 74.7-3 48.3-3.5 97.2-21.4 145.6 24.3-6.2 48.2 3.7 72.2-3.8-5.7-23.4-11.8-47.5-15.5-72.1-5.4-35.2-1.7-70.8-4.9-106.1-.4-4.4-.4-8.8-.6-13.3-.3-10.6-4.6-21.7 3.8-31.2 11.2-12.6 20.1-27.7 34.6-36.6.6.4 20.7-3.5 20.7-3.5l1.9-8.6 12.2-3.2-13.9-2-3.6 8.6-16.6-.5c-.7-.5-1.2-1.4-1.1-3.1.5-1.2 1-2.4 1.6-3.6.8-1.9 9.8-19 9.8-19l12.3-5 7.2-10.3-12.3 8.4-7 1.6 4-24.2-5.1-7.1 1.6 8.7-18.4 45.4c-9.8 11.4-17.3 24.8-29.3 34.4-3.3 2.6-5.6 8.4-10.4 6.6-4.5-1.7-4.9-7.8-3.9-11.8 5.3-20.4 1.2-40.8.2-61.1-.5-9.3 2-17.3 8.1-24.4 7.9-9.1 14.7-19.1 19.8-30.2.5-1.1.9-2.5 1.8-3.1 17.6-12.6 28.7-32.1 46.4-44.5.3-.1 1.6-.9 3.1-1.7l10.3 1.8 11.2-16.4H204l2.6-9.9v-3.3l-4.9 9.2z" fill="#010624"/>
</svg>
