<svg xmlns="http://www.w3.org/2000/svg" viewBox="0 0 440.8 648.6">
  <path d="M8.7 397c-1 .4-2 .3-2.9 1.1 4.3-.1 7.6-2.7 11.8-3.5 2.3-.4 4.7-.7 6.9-1.3 1.9-.5 3.5-1.5 5.2-2.2 3-1.1 6-1.6 8.9-2.9 1.8-.7 3.8-1.4 5.6-1.8 3.6-.9 7.1-2.3 10.8-3.2 1.9-.5 3.8-1.3 5.7-1.7-1.5 1.5-3.1 2.9-4.7 4.2-2.7 2.2-5.4 4.5-8.1 6.7-1.9 1.6-3.8 3.1-5.6 4.7-1.5 1.3-3.1 2.1-4.7 3.2 2.7-1.1 4.9-3.2 7.4-4.7 2.4-1.5 4.5-3 6.8-4.7 2.2-1.6 4.8-2.9 7-4.5 1.7-1.2 2.2-2.6 3.4-4.1.5-.6 1.1-1.1 1.7-1.5l21-6.9c1-.3 2.2-.4 3.3-.2 3.7.5 7.3 1.3 11 1.6 3.5.4 6.3 1.7 8.8 4.2 6 6.3 12.7 11.9 18.2 18.8 4.2 5.3 7.5 10.7 8.9 17 1.5 6.6 2.3 13.4 3.4 20 .1.7.3 1.5.7 2.1 2.9 5.2 5.9 10.4 5.7 16.6 0 .3.1.5.2.8.6 6.9 1.7 13.9 1.8 20.8.2 8.1-.7 16.2-.7 24.3 0 7.1.8 14.2.7 21.2-.1 14.9-.5 29.8-.9 44.6.6 4.4 1 8.9 1.1 13.4.5 13.7 1.8 27.4 2.4 41.1.4 9.2 1.1 18.6 1.3 28.1h25c-3.6-16.4-4.9-33.4-5.1-50.1-.1-5.5.1-10.9.3-16.4-.1-1.2-.1-2.4-.1-3.6 0-6 .4-12.2 1.4-18.2 0-.2.1-.5.1-.7.4-4.4.9-8.8 1.6-13.2 0-.6-.1-1.1-.1-1.7 0-26.8-.1-53.7.1-80.5 0-5.4 1.2-10.9 1.8-16.3.4-3.8.4-7.6 1-11.4.5-3.1 1-6.6 2.7-9.2 5.7-9 12.1-17.4 19.7-24.9 2.1-2.1 3.5-4.8 5.5-7 1.2-1.3 2.7-2.3 4.3-3.2 9.2-4.8 19.5-3.2 29.2-5.3 5.6-1.3 11.3-2.2 17-3.4 5.4-1.2 10.3-3.6 14.9-6.9 3.6-2.6 7.4-4.8 10.9-7.6-2.9 1.4-6 2.5-8.6 4.3-7.4 5-15.6 7.5-24.2 8.8-8.8 1.3-17.7 2.3-26.6 3.5-3 .4-6 1.2-9.4 1.9 6.3-7.3 13-13.4 21-18.1-7.2 2.3-13.1 6.7-18.4 11.9-5.2 5.2-11.7 9.1-15.1 16.9-3.5-5.6-9.4-8.7-8.9-15.8.2-3.4 1.7-6 3.5-8.7 4.6-6.8 9.2-13.5 13.7-20.4 1.2-1.8 2.4-2.9 4.6-3 4.1-.3 8.3-.6 12.4-1.3 4.6-.7 9.1-1.9 13.7-2.7 5.1-.9 10.3-1.7 15.4-2.6 2.8-.5 5.7-1.1 8.5-1.6 2.3-.5 4.6-.9 6.8-1.6 4.5-1.4 9-2.9 13.4-4.7 8.8-3.4 17.4-7 26.1-10.7 1.7-.7 3.3-1.8 4.9-2.7-.1-.2-.2-.4-.3-.7-3.4 1.3-6.8 2.8-10.3 4-8.4 3.1-16.7 6.3-25.3 9-7.2 2.3-14.6 4.2-22 5.8-5.5 1.2-11.2 1.5-16.8 2.3-1.7.2-3.4.8-5.5 1.3.3-.7.5-1.2.7-1.6 6.6-8.6 13.1-17.2 19.7-25.7 2.4-3.1 5.4-5.8 7.4-9.1 3.6-6 7.2-12.2 9.9-18.7 3.4-8.1 9.1-13 17.3-16 7.5-2.7 14.7-6.6 22.1-9.7 6.6-2.8 13.6-4.7 20-7.7 8.4-4 16.4-8.7 24.6-13.1 3-1.6 6-3.4 9-5 .4-.2 1-.3 1.2-.7 2.9-3.7 7-2.9 10.9-3 8-.3 16.1-.3 23.9-1.8 10-1.9 19.7-5.3 29.6-8 .7-.2 1.2-.7 1.7-1.6-6.4 1.5-12.7 3.2-19.1 4.5-6.6 1.4-13.3 2.9-20 3.5-6.6.6-13.3.1-20.9.1 2.1-2.6 3.6-5.2 5.8-6.9 5.9-4.8 12-9.3 19-12.6 11.5-5.5 22.7-11.6 33.8-17.8 3.9-2.2 7.2-5.4 10.5-8.5-16.6 7.8-31.7 18.4-49.8 25.2 1.1-6.5 2.1-12.2 3-18 .6-3.7 1-7.4 1.9-11 1.3-4.8 2.9-9.6 4.5-14.4 1.2-3.4 2.5-6.8 3.7-10.2.3-.7.3-1.5 0-2.4-5.2 11-11.5 21.6-12 34.4l-.9-.1c-.8-3.7-1.5-7.3-2.3-11-.2-.8-.2-1.7-.5-2.4-3.3-6.8-2.5-13.8-1.4-20.8 1-6.5 1.8-13.1 2.7-19.7 0-.2-.2-.5-.5-1.3-.5 1-1.1 1.7-1.2 2.4-1.6 9.9-3.4 19.8-4.7 29.8-.3 2.6.8 5.5 1.5 8.1 2.7 10.4 4.9 20.8 4 31.7-.4 4.2-1.5 7.7-5.5 10.2-5.8 3.6-10.8 8.1-14.6 14-1.6 2.5-4.4 4.5-7.1 6.1-7.7 4.6-15.4 9.5-23.6 13.3-7.9 3.7-16.3 6.3-24.4 9.3l-24.3 9c-1.3.5-2.6 1-4.6 1.7 4.8-9 11.5-15.6 17.8-22.4-.3-.2-.6-.5-.9-.7-3.1 3.1-6.4 6.1-9.1 9.5-3.4 4.1-6.2 8.6-9.4 12.8-1 1.3-2.5 2.8-4 3.3-11.4 3.8-22.1 8.9-32.6 14.7-8.1 4.5-17.1 7.4-25.7 11-1.8.7-3.1.4-2.9-2.1.3-4.4 1.1-8.6 3.3-12.6 4.1-7.5 8.4-14.7 14.1-21.1 3.6-4 7.4-7.5 12.6-9.5 1.3-.5 2.6-1.5 3.6-2.5 6-6.2 12-12.5 18-18.8.9-.9 1.5-2.2 2.2-3.2-.3-.3-.6-.5-1-.8-.3.6-.4 1.2-.8 1.7-6.7 6.7-13.4 13.4-20.2 20.1-.6.6-1.4 1.1-2.1 1.3-8.1 2.3-13.5 8-18.3 14.4-2.7 3.6-5.1 7.6-7.6 11.4-.2.3-.5.7-1.4.8.5-2.7.9-5.5 1.7-8.2 2.1-7.6 5.1-14.9 5.9-22.8.7-7.1 1.8-14.1 3.2-21.1.9-4.6 2.6-9.1 4.1-13.6.2-.7 1.2-1.5 2-1.8 7-2.9 14.4-4.3 21.9-5 1.8-.2 3.8.6 5.7 1.1 7 1.9 13 5.8 18.9 9.9 11.5 7.9 23.7 14.2 38.2 14 1.9 0 3.7-.3 5.6-.8-9.4-.3-18.3-2.2-26.8-6.9 2.7-1.9 5.3-3.7 8-5.4 8.1-5.1 16-10.4 22.7-17.5 3.5-3.7 8.8-5.8 13.3-8.6 2.4-1.5 4.9-3 7.1-4.9-1.7.8-3.4 1.7-5.1 2.5-4.2 2-8.5 3.9-12.6 6-2 1-3.9 2.3-5.4 3.9-8.7 9.3-20.3 14.8-30.5 22-.5.4-1.8.2-2.5-.2-6.1-3.9-12.1-8-18.2-11.8-2.7-1.6-5.6-2.8-8.5-4.5 17.1-2.8 34-5.7 50.1-12.3l-.2-.8c-2.1.7-4.1 1.3-6.2 2-13.6 4.3-27.7 6.4-41.9 7.7-8.2.8-16.3 2-24.4 3.3-2.9.5-5.7 1.6-9.3 2.6 1-2.7 1.7-4.9 2.5-7.1 3-7.9 9.9-10.7 17-13.1 12.4-4.3 24.8-8.5 37.4-12.4 5.4-1.7 11.1-2.3 16.7-3.5 7.2-1.6 14.1-6.3 17.3-11.9-8.5 9.1-19.8 10.8-31.5 11.8 0-.5-.1-.9-.1-1.2 1.8-8.4 4-16.8 5.4-25.3.8-4.8.5-9.8.4-14.8-.1-2.7 1.2-3.9 3.1-5.4 7-5.5 15.6-7.5 23.5-11.1 8.3-3.7 16.4-7.7 24.7-11.5l3.3-1.5-.5-.9-5.7 2.4c-9.2 4-18.3 8.1-27.5 12-2.7 1.2-5.6 2-8.4 3-1.3.4-1.9-.1-2.3-1.5-1.2-5.7.2-11 1.3-16.5.9-4.5 1.4-9.1 2-13.6-.3 0-.6-.1-.9-.1-.5 2.8-1 5.5-1.5 8.3-1.2 7.3-3.6 14.4-2.8 22 .1 1.4-1.2 3.2-2.4 4.3-1.5 1.4-3.4 2.4-5.5 3.7-.6-10.8-1.2-21.1-1.8-31.5h-1.3v5.2c.1 7.8.1 15.7.3 23.5.1 3-.6 5.2-3.1 7.2-5.4 4.3-10.5 9.2-15.8 13.7-4 3.4-8.8 5.4-14.1 6.2-1.2.2-2.4.6-4.1 1 .9-7.4 1.7-14.4 2.7-21.4.7-5.3 1.8-10.6 2.4-15.9.6-5.1 3.6-8.6 6.9-12.1 4.1-4.4 8.4-8.7 12.3-13.3 5.7-6.6 11.5-13.1 18.8-18.1 5.2-3.5 10.3-7.2 15.7-10.4 4.8-2.8 9.9-4.9 14.9-7.4.3-.2.6-.5.6-1.3-1.9.9-3.7 1.7-5.6 2.6-4.8 2.2-9.8 3.9-14.3 6.5-8.9 5.2-17.5 11-24.8 18.4-4.6 4.6-8.8 9.6-13.3 14.2-2.6 2.6-5.5 5-8.3 7.4-.4.3-1.4.6-1.6.4-.4-.3-.6-1.1-.5-1.7.6-9.5 1.4-19.1 1.8-28.6.2-5.5-.5-11-.5-16.5.1-10.7 1.7-21.2 6.1-31.2 2.1-4.7 3.7-9.7 5.4-14.6.3-.9.2-1.9.4-2.8-.3-.1-.7-.2-1-.3-.8 2.2-1.6 4.5-2.5 6.7-1.9 4.7-4.1 9.4-5.8 14.1-1.3 3.6-2.1 7.4-3.1 11.2-.6 2.2-1.1 4.5-1.3 6.8-.5 7.2-.7 14.5-1.2 21.7-.6 9-1.4 18-2 27-.2 2.4-.2 4.8-.4 7.3-.7 6-1.4 11.9-2.2 17.9-.2 2-.4 4-.7 6.1-.4-.1-.7-.1-.7-.2-2.4-8.2-9.6-12.3-15.3-17.6-5.3-4.9-11.7-8.6-17.4-13.1-6.7-5.2-6.2-3.5-2.9-11.8 3.2-7.8 7-15.4 10.5-23.1.2-.5.3-1.1.4-1.7-.3-.1-.5-.2-.8-.4-3.3 6.4-6.6 12.8-9.8 19.2-3.4-7.1-6.7-13.9-10-20.8-.4.2-.8.3-1.2.5.4 1.4.8 2.8 1.3 4.2 2.5 6.4 5.1 12.7 7.6 19.1.3.7-.1 1.8-.4 2.6-.6 1.8-1.4 3.6-2.4 6.3-4-3.3-7.8-6.2-11.3-9.4-1.1-1-1.5-2.7-2-4.2-1.4-4.9-2.7-9.9-4.1-14.8-.3-1.1-.9-2.2-1.9-3.1 0 1.1-.2 2.3 0 3.4 1.3 5.7 2.4 11.5 4.1 17.1 1.4 4.7 5.4 7.4 9.3 10 .6.4 1.4.6 2 1 2.4 1.4 3.4 2.9 2.6 6.1-2.5 10.5-4.3 21.1-6.5 31.7-.7 3.2-1.7 6.4-2.7 10.4-1.8-2.4-3.7-4.2-4.9-6.4-3-5.5-5.8-11-8.4-16.7-.6-1.4-.5-3.6.1-5 1.2-2.6 3.1-4.8 4.6-7.3 1.2-2.1 2.2-4.3 3.3-6.5-.3-.1-.5-.3-.8-.4-3.1 4.8-6.3 9.5-9.6 14.6-2.1-3.7-4.4-7.1-4.7-11.5-.9-12.4-2.2-24.7-3.1-37-.4-5.4-.4-10.8-.5-16.2-.1-1.7-.2-3.4-.3-5.2h-.7v51.1c-4.9-2-9.3-3.7-13.6-5.6-1.7-.7-2.1-2-1.4-3.9 1.8-4.7 3.3-9.5 4.9-14.2.2-.7.3-1.4 0-2.2-4 5.2-6.2 11.3-8.3 17.2-.5.1-.7.1-.9.1-5.1-1.8-5.1-1.8-3-6.6 2.3-5.6 4.9-11 7-16.7 1.3-3.4 1.9-7 2.4-10.7-4.5 9.9-9 19.7-13.8 30.3-2.8-2.8-5.1-4.8-7.1-7-2.6-2.8-5.2-5.6-7.5-8.6-.6-.8-.9-2.4-.5-3.3 1.3-3.6 3-7 4-10.8-1.9 3.7-3.7 7.4-6.1 12.1-2.5-4.2-4.7-7.7-6.9-11.3-.1 0-.3 0-.5.1.2.7.2 1.4.5 2.1 1.6 3.4 3.3 6.9 5 10.2 1.2 2.4-.1 4.5-1.5 5.8-8 7-16.1 13.7-24.4 20.7-.1-.6-.3-1.1-.3-1.6-.3-6.1-.7-12.2-.7-18.4 0-2.8.4-5.6 1-8.3 1.2-5.9 2.6-11.7 5.8-17 2-3.2 3.1-6.9 4.1-10.6-7.5 12-13.6 24.4-13 39.2-3.5-.6-5.4-2.8-6.5-5.2-1.6-3.2-2.7-6.7-3.3-10.2-1.2-6.2-1.9-12.6-2.8-18.9-.5-3.7-1-7.3-1.5-11h-1v19.4c0 .4.2.9 0 1.1-1.8 2-.3 4-.1 6.1.5 4.8 1.3 9.6 1.1 14.4-.2 6.4 1.3 12.3 3 18.3s4.9 11.1 8.4 16.2c2.6 3.7 4 8.3 5.5 12.6 2.1 5.9 3.9 12 5.6 18 1 3.6 1.5 7.3 2.3 10.9l-.9.3c-1.4-1.2-2.8-2.2-4.1-3.5-7.4-7.2-14.8-14.4-22.1-21.7-1.3-1.3-2.8-2.5-3.8-4-1.3-1.8-2.8-3.8-3.3-6-1.7-7.6-3-15.3-4.5-23-.1-.5-.3-1-.6-2V85c-2.8-3.8-5.4-7.3-7.9-10.8-.8-1.9-2.3-3.9-3.3-5.6-1.7-2.6-3.4-5.3-5-8-1.9-3-3.8-6-5.8-8.9-1.7-2.6-4-5.4-5.3-8.3 2.1 6.7 6.8 12.5 10.3 18.4 1.3 2.3 2.4 4.6 3.6 6.9.8 1.5 2.5 3.1 2.9 4.7l.5.3c3.2 4.5 6.4 8.9 9.6 13.4.7.9 1 2.2 1.3 3.3 1 4.3 1.7 8.6 2.9 12.8.5 1.9 1.8 3.6 3.1 5.2 3.8 4.5 7.7 8.8 11.5 13.2-.1.3-.3.6-.4.8-2.6-.9-5.6-1.3-7.7-2.9-9-6.5-17.9-13.5-26.8-20.3-.2-.2-.5-.3-.7-.5l-.3-.4c-.2 0-.4-.2-.6-.3-.2-.1-.4-.3-.6-.4v.2c-1.6-.9-2.9-2.6-4.2-3.7-3.2-2.9-6.4-5.8-9.5-8.8-3.4-3.3-7.5-5.8-10.8-9.2.7 1.7 2.8 3.4 4.1 4.8 1.9 1.9 3.9 3.6 5.8 5.5 3.1 3.1 5.7 6.7 8.8 9.8 1.4 1.4 2.9 3.1 4.7 3.8.4.1.7.3 1.1.4v.1c.7.5 1.4.9 2 1.4 5.7 4.6 11.3 9.5 17.2 13.9 5.6 4.2 11.2 8.5 18.6 8.9 1.5.1 3.1.8 4.2 1.7 3.3 2.9 6.1 6.3 9.5 8.9 6.4 5 9.7 11.4 9.7 19.4 0 6 1.7 12 .2 18-.1.5.1 1.1.2 1.6.8 6.7 1.7 13.5 2.3 20.2.3 2.9 0 5.8 0 8.6-.3 0-.7.1-1 .1-.5-.8-1.1-1.6-1.5-2.5-1.1-2.5-2.1-5-3.1-7.5-1.4-3.7-3.4-7.4-3.9-11.2-1-7.2-1.1-14.5-1.7-21.7-.3-3.5-.8-7-1.3-10.5-.1-.5-.5-1-.8-1.4-.8 1.2-1 2.2-.9 3.3 0 2.9.1 5.8.3 8.7.5 8.4 1 16.9 1.8 25.3.2 2.2-.2 3.5-2.6 4.5-1.8-3.3-3.8-6.5-5.2-9.9-1.2-3.1-1.9-6.4-2.5-9.7-.3-1.5.2-3.3.7-4.8.9-3 2.1-5.9 3-9 .3-1.2.1-2.5.1-3.7h-.8l-5.1 11.4c-.3 0-.7-.1-1-.1-4.4-7.5-8.9-15-13.3-22.5-.3 1-.3 2 .1 2.8 3.3 6.9 6.8 13.6 10.1 20.5 2 4.3 3.6 8.8 5.3 13.2-.3.1-.6.3-.9.4-6-5.4-11.8-10.9-15.2-18.5-5-11-10.2-21.9-15.4-32.9-.4-.9-.9-1.8-1.4-2.8-.3.1-.5.3-.8.4 4 16.5 11.9 31.3 20.2 46.9-2.4-.4-4.5-.4-6.2-1.2-6.8-3-12.8-7.2-17.9-12.5-.5-.5-1.1-1-1.7-1.4-.7-1.2-2.4-2.4-3.4-3.1-2.7-2.2-6.2-3.7-8.6-6.2-2.7-2.7-4.8-5.8-7.7-8.3-2-1.7-4.1-3.7-6-5.5 3 3.2 4.8 7.7 8 10.8 3.3 3.3 5.8 7.3 9.2 10.5 1.7 1.6 3.8 2.6 5.6 3.9.4.3 1 .6 1.6.9 4.2 3.3 8.2 6.8 12.6 10 4.2 3 8.3 6.7 13.9 6.5 4.2-.2 7.1 1.8 10 4.2 2 1.7 3.8 3.6 5.5 5.6 4.6 5.1 8.7 10.8 13.7 15.4 5 4.5 7 9.8 6.9 16.2-.1 7.4-.3 14.9-.7 22.3-.2 3.2-1.1 6.4-1.8 10.3-4.5-4-8.3-7.3-11.9-10.7-1.6-1.5-3.6-3.2-4.3-5.2-2.3-6.3-3.9-12.8-6-19.2-1.7-5-2.9-10.4-5.9-14.7-8.2-11.9-19.7-20.7-30.4-30.3-.9-.9-1.9-1.7-2.7-2.6-1.3-1.3-2.3-2.8-3.8-4-2.6-2-5.6-3.6-7.8-6.1-1.8-1.9-3.6-4.1-5.6-5.7 1.5 2.7 3.2 5.9 5.3 8.1 2.5 2.6 5.4 4.4 7.7 7.2 1.3 1.6 2.7 3.4 4.5 4.5.5.3 1.1.7 1.7 1 9.6 8.1 19.3 16.1 27.1 26 1.8 2.3 3.8 4.8 4.8 7.5 2.8 7.6 5.1 15.4 7.6 23.1.3.8.4 1.7.7 2.9-4.1-2.1-7.8-4.1-11.5-5.9-1.8-.9-2.4-2-2.3-3.9.2-3.2 0-6.5 0-9.7h-.9c-.4 3.4-.9 6.9-1.3 10.2-3.3-1-6.5-1.9-9.5-2.9-3.5-1.3-3.8-2.1-3.7-6.1.1-4.4 0-8.9 0-13.3h-.8c-.5 11.8-3.2 23.5-.3 35.4-.2.1-.4.1-.7.2-3.3-3.3-6.7-6.6-10-9.9v.5c-.4-.3-.8-.6-1.3-.8-2.5-1.1-4.3-2.5-6.1-4.9-.9-1.2-1.4-2.6-2.3-3.8-.9-1.2-2-2.2-3-3.3-2.9-3.6-5.9-7.3-8.5-11.1-1.8-2.6-2.1-4.7-2.3-7.7l-.9-13.8.2 3.8c-.6 1.4-.3 3.2-.6 4.5-.3 1.5-.4 2.9-.6 4.4-.3 2.8-.6 5.9.9 8.3 2.2 3.4 5.1 6.4 7.5 9.7 3.4 4.8 6.7 9.3 10.7 13.5 1.1 1.2 2.5 1.9 3.8 2.9.6.4 1.5 1.7 2.1 2 .2.1.2.1.4.1v.2c3.8 3.7 7.6 7.3 11.4 11 .5.5.8 1.5 1 2.3 1.7 5.7 3.2 11.4 5.1 17.1 2.8 8.7 3.2 17.6 2.9 26.7-1.7-1.6-3.2-3.4-4.6-5.1-3-3.5-6.2-6.9-9-10.6-2.1-2.7-3.9-5.6-5.7-8.5-1-2.3-2.6-4.3-4.3-6.3-2.3-2.8-5-5.3-7.6-7.8-2.8-2.8-6-5-8.3-8.3-3-4.2-6.2-7.9-9.7-11.7-2.9-3-5.2-6.5-7.4-9.8-.2 1.3.8 3.4 1.2 4.6 1 2.9 2.6 5.3 3.8 8.1 2.8 6.7 8.8 11.8 12.4 18 2.3 4 4.8 7.7 7.4 11.4 1.4 2 4.7 5.6 4.5 8 0 .3.2.4.3.6-1.7.3-3.6-2.9-4.8-4-1.2-1.1-2.4-2.2-3.7-3.3-2-1.8-4-2.8-5.6-5-2.4-3.2-6-6.1-9.1-8.6-2.3-1.8-4-5.2-6.6-6.5 1.4 1.5 2 3.9 3.3 5.6 2.1 2.7 4.4 5 6.6 7.6 4.7 5.3 9.8 10.4 14 16.1 2 2.7 6.3 2.8 9 4.5 1.2.7 2.5 1.5 3.8 2.4 1.2 1.5 2.3 2.9 3.4 4.5 2.6 3.6 5.5 7 7.8 10.8 11 18.3 21.8 36.7 32.6 55.1 2.8 4.7 5.3 9.6 7.8 14.4 3.9 7.7 7.8 15.4 11.5 23.1 1.6 3.4 2.8 6.9 4.1 10.4-1.3-.5-2.1-1.3-2.9-2.2-1.9-2.4-3.5-5.2-5.8-7.2-9-7.9-18.1-15.8-27.5-23.3-4.7-3.7-8.8-8-12.7-12.5-.5-.6-.7-1.7-.9-2.5-1-6.3-1.3-12.9-3.1-19-2.2-7.7-6.4-14.4-10.7-21.1-.4-1.2-.7-2.3-1.1-3-1-2.1-1.5-4.1-2.1-6.4-1-3.7-3.1-7.1-4.9-10.4-1-1.9-3.8-8.3-5.9-8.5 2.4 3.6 2.8 8.3 4.8 12.3 1.2 2.4 4.4 5.9 3.9 8.7-1.1-.8-2.4-1.1-3.5-2-1.2-.9-2.3-2-3.5-2.9-4.9-4-8.1-9.6-12.9-13.7-4.3-3.8-8.4-7.1-12.5-11.3-4.8-5-11.2-8.3-16.9-12.3 3.3 3.2 6.4 6.8 9.6 10 2.1 2 4.3 3.8 6.7 5.5 5.4 3.9 8.4 9.3 12.7 14.2 2.9 3.2 6 7.3 9.7 9.7 2.8 1.9 6.1 2.9 8.6 5.3 1.1 1 2.2 2.3 3.3 3.7v.6c3.9 6.7 8.6 13.1 11.6 20.2 2.5 6 3 12.9 4.4 19.7-5.6-4.8-10.7-9.2-15.9-13.7-1.7-1.7-5.1-4.3-6.9-5.9-2.1-1.9-3.7-4.3-5.6-6.4-4.2-4.8-11-7.7-16.4-11-6.3-4-11.4-9.6-17.4-14.2-2.8-2.1-5.2-4.5-7.8-6.8 1.7 3.8 6.3 7.6 9.4 10.4 2.4 2.1 5.6 3.8 7.7 6.2.9 1 1.2 2.6 2.1 3.6 1.2 1.4 3 2.5 4.4 3.7 1.8 1.5 3.6 3 5.3 4.6 2.1 1.9 3.6 4.4 5.8 6 4.4 3.2 9.7 5.2 13.6 8.9 1.2 1.1 2.2 3.2 3.5 4 .7.4 1.4 1 2.1 1.3 1.1.5 1.4.3 2.1 1 .2.2.4.4.6.5 6.1 6.1 12.2 12.2 18.3 18.4 1.2 1.2 2.4 2.6 3.8 3.7 3.3 2.7 6.8 5.2 10.2 7.8.4.3.7.8 1.1 1.2l-.4 1c-9.8-2.6-19.6-5.3-29.4-7.9-1.4-.6-3.5-1-4-1.2-.8-.2-1.7-.9-2.5-1.1-.9-.2-1.8 0-2.8-.1-1.8-.4-3.4-1.7-4.9-2.7-1.9-1.2-4-1.9-6-3.1-2.4-1.4-4.6-3.2-6.9-4.7-1.9-1.3-3.8-2.4-4.7-4.6-2-4.6-5.3-8.5-7.9-12.9.6 1.5.6 3.1 1.4 4.6.8 1.5 1.5 2.9 2.5 4.2 1.8 2.6 2.8 5.5 4.2 8.3-1.1-.1-1.8-1.2-2.7-1.8-1-.8-2.2-1.3-3.3-1.9-3.2-1.9-6.4-3.6-9.6-5.7-6.8-4-14.2-8.2-21.8-10.9 1.9 2.4 5.2 4 7.8 5.6 1.4.9 2.4 1.9 4 2.3 1.3.4 2.8.6 4.1 1.1 1.8.8 3.2 2.2 4.7 3.5 1.8 1.5 3.7 2.9 5.6 4.3 4.9 3.4 10.3 6.3 15.5 9.2 1.6.9 3 2 4.6 2.8 1.2.6 2.5.6 3.7 1.3 2.6 1.6 4.1 3.6 7.4 3.9 2 .2 4 .6 5.9.9 5.9 1.7 11.8 3.4 18.4 5.3-6.5 3.2-12.7 4.3-18.8 5.7-1.3 0-2.5 0-3.8.5-2.3.8-3.7 2.1-6.1 2.4-2.1.3-3.9 1.4-6 1.7-2.1.3-4.3.6-6.4 1-1.5.3-2.7.8-4.4.9-.8 0-1.5.4-2.3.4-1.2 0-2.3-.4-3.5-.7-4.3-.9-8.7-1.4-13.1-1.8-1.3-.1-2.4-.1-3.7-.1-.8 0-1.8-.5-2.6-.1.8-.1 1.6.4 2.4.5.8.1 1.7.1 2.6.1 2 0 3.7.9 5.6 1.3 2.5.4 4.9 1.1 7.4 1.6 1.6.3 3.2.3 4.7.7-1.6 1.5-4.4 2.3-6.5 2.8-2.7.7-5.1 1.9-7.7 2.9-2.7 1.1-5.4 2.2-8.1 3.4-.8.5-1.7 1.3-2.7 1.7zM119 196c-.2.1-.5.2-.7.3-.9-1-1.9-2-2.6-3.1-.3-.4 0-1.3 0-1.9.6.3 1.5.5 1.8 1 .6 1.2 1 2.5 1.5 3.7zM104.7 81.8l-1.2.3L98.8 64c.5-.1 1-.2 1.4-.4 1.5 6.1 3 12.1 4.5 18.2zm3.8.9c-2-6.7-3.9-13.4-6-20.4 6.5 3.3 9.7 13.3 6 20.4zM85.6 266.5c3.2 3 6.1 6.2 9.4 8.8 6 4.8 12.6 8.9 18.4 14 3.9 3.3 6.3 8.1 5.8 13.5-.7 6.8-3.6 13-6.9 18.9-.7 1.2-1.4 2.4-2.2 3.5-.9 1.2-1.9 1.4-2.9 0-5.5-8.3-10.9-16.6-16.5-24.7-3.3-4.8-4.9-9.9-4.2-15.7.2-1.6-.1-3.3-.2-5-.3-4.5-.5-9.1-.7-13.3zm-6.4-19.1c3.4 2.3 4.6 6.6 3.2 10.7-1.1-3.6-2.1-7-3.2-10.7zm4.5.3c-2.3-3-5.3-5.4-6.5-8.5-1.6-4.5-1.9-9.4-2.7-14.2-.2-1.6 0-3.3 0-5.5 4.1 1.9 7.8 3.5 11.4 5.4.9.5 1.6 2 1.7 3.1.7 6.6-.2 13.1-3.9 19.7zm37.7 45.5c-.1.8-.7 1.5-1.1 2.3-1.6-2.8-2.5-5.9-4.5-7.6-5.7-5-11.9-9.4-18-14.1-3.3-2.5-6.7-4.9-8.7-8.9-3.8-7.4-3.3-14.8-.7-22.5.9-2.6 1.1-5.4 1.4-8.2.2-2.1 0-4.2 0-6.3.3-.2.6-.4 1-.6 4.1 2.9 8.4 5.5 12.1 8.7 4.3 3.7 7.9 8.1 12.1 11.9 5 4.6 8 9.9 6.8 16.9-.3 2-.1 4.1-.2 6.1 0 1.7-.4 3.7.2 5.1 2.5 6 .6 11.6-.4 17.2zM127 313c1.1-10.4 3.8-20.6 5.8-31 .8-4.3 1.6-8.5 2.5-12.8.2-.8.9-1.6 1.7-2.8.9 3.2 1.7 5.8 2.5 8.4 1.9 6.2 4 12.3 5.6 18.6 1.2 5 1.5 10.3 2.7 15.4.5 2.2-.2 3.5-1.5 4.9-1.7 2-4 3.8-4.7 6.1-2.1 7.1-3.9 14.4-5 21.7-1.1 7-2.8 13.4-7.9 19-2.5-4.8-4.5-9.5-7.4-13.7-3.9-5.8-1.2-11.6 0-16.9 1.3-5.8 5-10.6 5.7-16.9zm12.3 27.9c1.4-6.2 2.7-12.4 4.4-18.4.7-2.4 2.6-4.5 4-6.7l1.2.3c.5 2.2.7 4.6 1.4 6.6 1 2.5.6 4.6-.9 6.8-2 2.8-3.9 5.7-5.8 8.5l-4.2 6.3c-.4-1.2-.3-2.3-.1-3.4zM128 267.2c-1.8-11.1.4-22.1 1.5-33 3.3 11.1 5.7 22.2-1.5 33zm28.1-191.5c-2.2 4.2-4.5 8.3-6.9 12.4-3.3 5.4-6.6 10.7-10.1 15.9-3 4.4-6.3 8.5-9.6 12.7-.9 1.2-2 2.2-3 3.2-2.1-3.5-4-6.4-5.8-9.4-4.5-7.2-8.2-14.6-7.4-23.4.1-1.1.6-2.4 1.4-3.1 6-5.5 12-10.9 18.1-16.2 3.3-2.9 7.5-5 8.3-10.1.3 0 .5-.1.8-.1.5.6 1 1.3 1.6 1.9 4.2 4.5 8.5 8.9 12.5 13.4.4.5.5 2.1.1 2.8zm9 2.3c-2.5 5.7-6.4 9.6-12.3 12.6 2.5-5.4 4.7-10 7-14.9 1.8.7 3.5 1.5 5.3 2.3zm26.5 30.7c-2.2 6.5-4.4 13-6.2 19.6-1 3.4-1.2 7-1.9 10.9-2.9-7.1-6.1-13.5-8.1-20.2-1.9-6.6-2.6-13.6-3.9-20.6-.2.5-.4.8-.4 1.1-.6 9.1.8 17.8 4 26.3 2 5.4 4.5 10.7 6.1 16.2.9 3.1.8 6.6.7 9.9-.2 4.7-1 9.4-1.3 14.1-.2 3.5-.4 6.8-2.3 9.9-1.4 2.4-2.1 5.2-3.2 7.7-.8 1.9-1.5 3.9-2.7 5.5-2.1 2.9-4.6 5.5-6.9 8.4-1.8 2.3-3.4 4.6-4.9 7.1-4.1 6.4-8.1 12.9-12.2 19.3-.7 1.2-1.9 1.5-2.7.2-.9-1.5-1.6-3.2-2.2-4.8-.3-.7-.2-1.5-.3-2.7-.8 1.1-1.3 1.7-1.8 2.3h-.9c-.5-3.5-1.8-6.9-1.2-10.5.8-4.4 2.5-8.7 2.8-13 .7-10.5 3-20.6 6.5-30.5 2.4-6.8 4.6-13.8 6.9-20.6 1-2.9 2-5.8 3.2-8.6 1.6-3.7 3.3-7.4 5-11.1.1-.2-.1-.5-.3-1.4-1.2 2.1-2.2 3.8-3.1 5.4-1.4 2.5-2.7 5-4.1 7.5-.8 1.5-2 2.9-2.6 4.6-2 5.8-3.5 11.8-5.8 17.5-4.5 11.2-7.8 22.7-8.8 34.7-.1 1.6-.6 3.2-.9 4.8-.2 0-.5 0-.7.1-.5-1.9-1.1-3.8-1.4-5.7-.8-5.5-1.5-11-2.3-16.5-.4-3-1.3-6-1.3-9-.1-11.7.4-23.4-3.6-34.7-.4-1.2 0-3.4.9-4.3 4.7-4.7 7.3-10.7 10.7-16.2 4.5-7.3 9.4-14.3 16.5-19.3 4.3-3 8.1-6.2 10.2-11.2.2-.4.6-.6.4-.5 5.2 1.9 10.2 3.5 14.9 5.5 1.4.6 3.1 2 3.3 3.2.8 5.3 2.5 10.3 5.3 14.8 1.5 1.5 1.3 3 .6 4.8zm-31.9 128c.1-.7-.4-1.6-.8-2.3-1.4-2.9-3.3-4.9-7.5-4.3.6-1.3.8-1.8 1.1-2.2 3.1-5.5 6.3-10.9 9.3-16.4 1.6-2.9 2.8-6.1 4.8-8.7 4.8-6.4 9.8-12.5 12.4-20.3 1.5-4.6 4-8.2 9.2-9.5 4.8-1.3 9.4-3.3 14.1-5.1 1.6-.6 3.1-2.3 4.7-2.3 4.2-.1 8.3.4 12.5.7.5 0 1.2.5 1.3.9.6 2.5 1.8 5.1 1.5 7.6-.3 3.4-1.6 6.8-2.7 10.1-1.8 5.4-3.8 10.8-5.7 16.2-2.3 6.4-7.3 10.8-11.4 15.9-.8.9-2.1 1.4-3.6 2.5-2.4-8.6-4.3-16.9-8.9-24.1 0 1.1.3 2.2.6 3.2 1.8 6.7 3.6 13.3 5.2 20 .2 1 .2 2.4-.3 3.1-4 4.6-8.3 9-12.4 13.5-3.8 4.2-7.6 8.4-11.3 12.7-3.3 3.9-4 4.1-7.8.5-.8-.7-1.4-1.7-1.8-2.7-1.2-2.9-3.1-5.6-2.5-9zm63-81.5c3.4-2.3 7.2-4 11.3-6.2-.3 1-.3 1.4-.4 1.6-2.2 4-4.4 7.9-6.6 11.9-.3.5-.9.7-1.4 1.1-.8-1.1-2-2.2-2.2-3.4-.4-1.7-2.7-3.6-.7-5zm-9.7 7c-.1-.2-.1-.5-.2-.7 1.5-.9 3-1.8 4.7-2.9.7 1.4 1.3 2.5 2.4 4.5-2.9-.4-4.9-.6-6.9-.9zm3.5-9.9c.9 1.8.3 3.3-1.6 4.4-4.2 2.4-8.1 5.4-12.4 7.5-5.8 2.7-12 4.8-18.4 7.3v-2.1c1.2-12.1 2.7-24.2 3.7-36.3.6-8.1 3-15.6 6.3-23.7l1.5 3c2.5 4.8 4.4 10 7.7 14.2 6.1 7.8 8.8 17.2 13.2 25.7zm33.8 29.2c1.6-4.6 2.9-8.7 4.6-12.7.4-1 2-1.8 3.2-2 3-.5 6.1-.5 9.1-1 2.7-.5 5.4-1.4 8.1-2.2-.1-.2-.1-.4-.2-.7-6 .4-12 .9-18.4 1.3.6-2.1.9-3.3 1.4-4.5 1.2-3 1.7-6.5 4.9-8.1 2.1-1.1 4.4-1.7 6.6-2.5 8.4-3 15.3-8.3 21.3-14.7 2.4-2.6 5.1-5 8.1-7.9.1 1.5.2 2.3.3 3.1.5 12.8-2 25.2-5.6 37.4-.6 1.9-1.7 2.6-3.5 3.1-5.6 1.6-11.2 3.3-16.8 5.1-5.7 1.7-11.3 3.6-17.1 5.2-1.8.7-3.8.8-6 1.1zm-.7-17.6c-6.6.2-13.2.1-20.2.1 2.4-6.7 6.5-11.8 10.7-16.7 1.8-2.1 5.4-2.5 8.2-3.8 1.1-.5 2.2-1.2 3.2-1.7-.1-.2-.2-.4-.4-.7-2.5.5-5 1.1-7.9 1.7 3.7-5.9 7.2-11.5 10.6-17-.3-.2-.6-.4-1-.7-.6.6-1.2 1.3-1.7 2-3.6 4.8-7.1 9.5-10.7 14.3-.9 1.2-2 2.3-3.2 3-5.3 2.8-10.8 5.3-16.4 8.1-1.2-2.4-2.5-4.7-3.7-7.1-5.3-10.9-5.2-11.6-2.5-22.6 1.5-6 2.3-12.2 3.4-18.3 1.1-5.9 2.3-11.7 3.5-17.8.8.3 1.1.4 1.3.5 11.4 8.5 23 16.8 33.4 26.6.5.5.9 1.2 1.2 1.8 3.3 6.8 2.7 14.1 1.3 21.1-1.7 8.4-4.4 16.6-6.9 24.8-.2.9-1.4 2.3-2.2 2.4zm-22.5 9.6c-.9-3.5 1.2-6.4 4.7-6.3h17.5c-.4 5-8.6 18.8-13.7 23-4.1-5.2-6.9-10.7-8.5-16.7zm-.9 33.3c-3.1.3-6.3.1-10.3.1 1.7-4.9 3.1-8.8 4.4-12.8 1.3-4 2.5-8 3.9-12.9 2.5 5.2 4.7 9.8 6.9 14.4.2.5.1 1.3-.1 1.9-.7 2.4-1.4 4.8-2.3 7.1-.4 1-1.6 2.2-2.5 2.2zm-8.5 37.7c-1.1 4.8-2.6 9.6-3.9 14.7-2.9-7.3-5.6-13.9-8.3-20.6-1.2-3-2.4-6-3.8-9-1.1-2.2-.3-3.9 1.4-5 4-2.6 5.8-6.9 8.7-10.3 1.2-1.4 2.6-3.2 4.1-3.4 3.3-.4 6.8.2 10.4.4-.2.9-.3 1.5-.5 2.1-1.5 4.7-3.3 9.4-4.5 14.1-1.4 5.6-2.3 11.3-3.6 17zm-17.6 104.3c1.1-3.6 1.8-6.6 3-9.5 2-4.7 4.1-9.3 6.5-13.8.5-1 2.2-1.9 3.3-1.8 6.7.7 12.1-2.4 17.5-5.5.8-.4 1.4-1.1 2.1-1.6-6.6 1.8-12.6 6.1-20.2 3.8 1.6-4.3 3.3-8.3 7.5-10.4 7.1-3.6 14.2-7 21.1-10.9 8.1-4.5 15.9-9.6 23.9-14.3 2.6-1.5 5.3-2.7 8-4.1.2.2.3.4.5.6-.5.8-.9 1.5-1.3 2.3-2.2 3.9-4.3 7.8-6.5 11.7-2.5 4.3-4.7 8.9-7.7 12.9-5.6 7.6-11.6 14.8-17.4 22.2-3.1 3.9-6.1 8-9.4 11.8-1.3 1.5-3.3 3.1-5.2 3.5-4.5.9-9.1 1-14.1 1.5 2.9-5.5 5.7-10.6 8.4-15.7-.3-.2-.5-.3-.8-.5-2.5 4-5.6 7.8-7.4 12.1-2.3 5.3-6.9 4.6-11.8 5.7zm-11.6 28.3c-1.5-3.4-3-6.3-4.2-9.4-.3-.7 0-2.1.5-2.7 3.1-3.4 6.3-6.9 9.7-10 3.2-2.9 7.4-2.9 11.4-3.4.1.3.3.5.4.8-5.8 8.1-11.7 16.2-17.8 24.7zm-9.9 13.8c0-2.4.7-2.7 2.9-1.7 1.9.8 3.7 1.9 5.7 2.1 5.6.6 7.1 5.6 10.3 8.2-6.2 7.6-12.2 14.9-18.1 22.1-.2-4-.4-7.9-.5-11.8-.1-6.2-.2-12.6-.3-18.9zm-.6-10.7c.3-3.5-1.1-7.6 3.6-10.7 2.5 6.7 4.8 13 7.1 19.3-.2.2-.4.3-.6.5-1.7-.7-3.3-1.8-5.1-2.1-4.2-.7-5.3-3.3-5-7zm-9-53.6c8.1-1.4 16-2.7 23.9-4.1.2.4.4.7.6 1.1-.7 1.5-1.7 2.9-2.1 4.4-2.3 8.2-9.2 12.5-15.2 17.4-1.6 1.3-3 .5-3.3-1.6-.2-1.2-.5-2.3-.8-3.5-1-4.4-2-8.8-3.1-13.7zm-6.7-35.3c.8-2.9 2-5.7 3.1-8.5 1.8-4.8 3.4-9.6 5.4-14.3 1.9-4.5 3.8-9.1 6.5-13.1 4.4-6.5 9.4-12.6 14.3-18.8 2-2.6 4.2-5.1 6.4-7.9.5.8.8 1.1 1 1.5 2.6 6 5.4 11.9 7.7 17.9 1.5 3.8 2.8 7.8 3.2 11.8.4 4.9-.2 10-.5 15-.1 1.6-.9 3.2-1.1 4.8-1.2 7.5-2.4 15-3.7 22.5-.1.7-.5 1.4-.9 2-2.5 4.6-5 9.2-7.7 13.7-.6 1-1.9 1.9-3 2.1-3.2.5-6.5.4-9.7.9-4.3.6-8.6 1.5-12.9 2.4-1.6.3-2.3-.1-2.9-1.7-2.8-7.2-2.1-10.2 3.9-15 .7-.6 1.4-1.3 2.2-1.7 5.3-2.5 7.4-7.3 9.1-12.4.4-1.3.6-2.7.9-4-.8 0-.9.2-1.1.5-.3.7-.7 1.3-1 2-2.1 5.3-4.6 10.2-10.2 12.7-1.6.7-2.7 2.2-4.1 3.3-.5.4-1.2.8-2.2 1.5-.4-4.6-3.5-8.8 1.2-12.6 1.7-1.4 3-3.3 4.5-4.9 6.2-6.3 10.4-13.9 13.3-22.3-5.3 10.1-12.1 19-21.5 26.8 0-1.7-.5-3.1-.2-4.2zm-1.8-27.9c-1.6 3.4-3.3 6.7-5.1 10.5-.5-.8-.8-1.1-.9-1.4-3.8-8.2-6.1-17-8.6-25.7-1.1-3.8-.1-6.8 1.5-9.9.6-1.3 1.6-1.8 2.5-.3 1.7 2.7 3.5 5.3 4.7 8.1 1.7 4.2 2.2 8.9 6.5 11.9.9.6.5 3.2.4 4.8 0 .7-.6 1.4-1 2zm-3.8 133.2v15.1c-.3.1-.6.1-.9.2-.4-.6-.9-1.1-1.1-1.7-.8-2.1-1.5-4.3-2.3-6.5-1.3-3.4.2-6 4.3-7.1zm-24.9-35.1c4.8-7 9.3-14.1 14-21.2 1.6-2.4 3.2-4.9 5.2-7.9.7 1.2 1 1.6 1.1 2 1.3 8.7 2.5 17.4 3.9 26.2.4 2.3-.6 3.5-2.1 5-1.5 1.6-3.6 4-3.3 5.7.5 3.1-.3 5.8-.7 8.6-.2 1.6-.6 3.3-1.3 4.8-1.2 2.4-4.6 3.2-5.7 1.4-1.6-2.8-3.1-5.7-4.7-8.5-2-3.5-4-6.9-6-10.3-1.2-1.9-1.9-3.5-.4-5.8z" fill-rule="evenodd" clip-rule="evenodd" fill="#00020e"/>
</svg>
