<svg xmlns="http://www.w3.org/2000/svg" viewBox="0 0 345 562">
  <path d="M345 240.3s-3.9-11.7-8.8-20c-7.1-2.6-21.3 8.9-21.3 8.9s-10.6-17.4-24.8-24.8c-7.5 8.8-21.9 18.3-35.9 22.7-7.6-.6-15.6-1.6-21.1-2.7 29.3-14.7 33-37.9 33.4-61.7 41.4-13.7 24.9-58.7 24.9-58.7s-16 8.2-17.3 8.4c-1.3.2 3.6-6.4 11.4-18.4-23.2-22.8-52.1-13.2-72.1-2.2-13.5-5.7 1-21.4 1-21.4l-13.7-3.9s-2.5-14.5-1.2-14.7c1.3-.2 14 2.9 14 2.9s1.1-14.2 5.5-18c4.4-3.8 10.5-5.6 10.5-5.6l12 17.3 18.1 3.7-3.8 8.2L274.6 81l11.3-15.6-6.7-9-2.5 4.9 3.7 4-4.6 6.1-8-8.8 13.5-12.8c-17.7-6.9-37.4-27.5-45.6-49.8-5.4.3-23.7 5.2-54.2 25-25.1-1.8-44.6-5.3-67 35.9-22.5 41.2.6 41.5.6 41.5l6.2 5.4s-12.1 4-12.3 14.9c-55.6 5.8-28.2 39.3 3.8 57.3 14.3 42.2 41.1 45.8 41.1 45.8s-.9 1.7-4.1 5.6c-12.9 1.5-25.5 3.4-31.3 1.8-4.3-1.2-8.7-1.4-12.5-1.1-20.6-6.8-31.2-18-34.2-19.3-5.6 2-19 13-31.1 25.2-12.8-11-31.9-10.4-31.9-10.4S1.4 231.4.2 248c12.5-25.2 29.4-1.8 29.4-1.8s-14.7 1-19.5 6.8c-2.8 7.1-3.5 24.4 1.2 29.6-2.7-12 5.7-23.2 5.7-23.2s14.5-2.5 20.4-3.2c3.7 24.1 21 20.5 28.6 11.4-6.2 3-13.2-1-13.2-1s-4.1-15.5-4.4-16l15.7-8.2S66 249.3 66 258c11-9.6 0-21.3 0-21.3l-15.5 2.2s9.9-12.3 22.3-20.4c6.6 11.4 15.2 19.3 24 24.9 4.3 23.4-4.3 52.9-4.3 52.9l13.6-5-10.2 20.9s9.5 5 21 14.4c-15.6 17.6-.4 33.4-.4 33.4s13.6-16.3 9.3 6.4c-4.2 22.7 7.5 29.8 9.8 30 2.4.2 12.4 4.3 12.4 4.3l.4 11.8s14 1.6 14.9 13.2c.6 7.5 9.7 8.1 17.1 3.9 3.6 70.9 7.3 132.1 7.3 132.1l12.5-.9c-4.3-22.7-4-87.2-2.2-154.8 4.1-4.2 7.7-7.2 7-11.4-1.3-7.7 2-30 2-30s4.3 4.6 14.9 19.6c7.8-8.3 12.4-25.4 12.3-35.3-.1-9.9 11.1-20.3 11.1-20.3s3.1 13.5 1.7 25.6c4.8-7.5 9.5-31.9 9.9-38.6.6 3.3 2.1 10.5 3.4 14.2 1.9 5.3 5.4-15.1 4.3-18-.1-.4-.3-.7-.3-.7.5.5 3.1 4.3 8.2 6.6 6.8 2.9 0-39.6 0-39.6s7.5 5.8 12.6-15.5c4.4-18.7.2-34.4-7.7-36.2 8.2-9.2 12.5-17.3 12.5-17.3l19.6 19.8-14.5-3.3s-2.8 18.4 4.9 21.4c-2.5-5-1.5-10.3-1.5-10.3s7.3.9 11.3 3.1c1.1 10.6-4.5 19.1-12.5 19.4 12.9 11.2 16.8.7 18.7-14.5 0 0 14.9 2.8 16.3 3.1 1.4.3 3.5 12.1 6.6 23.9 3.7-5.5-.4-27.5-.4-27.5s-4.6-6.6-15.6-8.2c10.1-17 22.2 4.3 22.2 4.3zm-187.5-86.8c5.7 2.6 15.2 5.9 25.1 4.6v1.1c0 7.3-5.9 13.2-13.2 13.2-7.3 0-13.2-5.9-13.2-13.2 0-2.1.5-4 1.3-5.7zm67.1 44.5c0 4.8-3.2 8.9-7.6 10.2v-.9c0-3.4-1.5-6.2-3.3-6.2-1.8 0-3.2 2.8-3.2 6.2 0 .4 0 .9.1 1.3h-7.8c0-.4.1-.9.1-1.3 0-3.4-1.5-6.2-3.3-6.2-1.8 0-3.2 2.8-3.2 6.2 0 .4 0 .9.1 1.3H187c0-.4.1-.9.1-1.3 0-3.4-1.5-6.2-3.3-6.2-1.8 0-3.2 2.8-3.2 6.2 0 .4 0 .9.1 1.3h-7.9c0-.4.1-.9.1-1.3 0-3.4-1.4-6.2-3.3-6.2-1.8 0-3.2 2.8-3.2 6.2v1c-4.6-1.2-7.9-5.3-7.9-10.3v-4.9c0-5 3.4-9.2 8-10.3-.1.6-.1 1.2-.1 1.8 0 3.4 1.4 6.1 3.2 6.1 1.8 0 3.3-2.7 3.3-6.1 0-.7-.1-1.5-.2-2.1h8.2c-.1.7-.2 1.4-.2 2.1 0 3.4 1.4 6.1 3.2 6.1 1.8 0 3.3-2.7 3.3-6.1 0-.7-.1-1.5-.2-2.1h9.8c-.2.7-.2 1.4-.2 2.1 0 3.4 1.4 6.1 3.2 6.1 1.8 0 3.3-2.7 3.3-6.1 0-.7-.1-1.5-.2-2.1h8.1c-.1.7-.2 1.4-.2 2.1 0 3.4 1.4 6.1 3.2 6.1 1.8 0 3.3-2.7 3.3-6.1 0-.6 0-1.2-.1-1.8 4.4 1.3 7.7 5.3 7.7 10.2v5zM212 172.4c-7.3 0-13.2-5.9-13.2-13.2v-1.1c9.9 1.3 19.4-2 25.1-4.6.8 1.7 1.3 3.6 1.3 5.7 0 7.3-5.9 13.2-13.2 13.2z" fill="#010624"/>
</svg>
