<svg xmlns="http://www.w3.org/2000/svg" viewBox="0 0 166.3 328.6">
  <path d="M57.4 328.6L61.9 194c.3-8.9-1.7-17.7-5.7-25.7-9.9-19.7-26-55.5-26-55.5s-17.5-12.2-18.9-14.2C10 96.6 8 96 1.8 85.1c-3.5-6.2-1.7-9.5 2.9-15.6 2.5-3.3 5.8-3 8.1-.6 1.7 1.8-.6 11.3-.6 11.3l17.3 15.6c1.9 1.6 4.8 1.5 6.6-.2 1.6-1.5 1.9-3.9.9-5.8L24.6 67.2c-1.6-2.7-2.3-5.9-1.9-9L24.9 47c.2-1.3 1.6-4.2 2.3-5.3 5.8-9.1 7.9-8.8 10.2-8.1 3.2.9 4.1 4 2.8 8.4l-4.6 15s7.8 24.2 15.5 26.7 8.1-7.5 8.1-7.5L43.4 27.7S41 20 49.6 6.2c4.3-7 8.4-7 11.3-5.3 3.1 1.8 4.4 5.7 3.2 9.1l-3.9 12c-.6 1.9-.7 3.8-.1 5.7L69.2 61c2.8 4.9 8.3 8 14 7.9.6 0 1.2-.1 1.9-.2 7.2-1.1 12.1-8 11.8-15.3-1.8-49.4 12.6-41 12.6-41 10.5 7.5 4.5 55.7 4.5 55.7.4 12.8 3.4 27.5 5.6 36.6.9 3.9 5.8 5.2 8.6 2.3L146 91.8c-7.2-15.3 11.3-37.1 10.8-28.4-.3 5.9 5 17.4 8.5 24.2 1.7 3.3 1.1 7.3-1.4 10.1l-25.7 27.7-17.2 43.1c-3 7.5-4.4 15.6-4.1 23.7l4.7 128.7-64.2 7.7z" fill="#00020e"/>
</svg>
