<svg version="1.1" id="Calque_1" xmlns="http://www.w3.org/2000/svg" x="0" y="0" viewBox="0 0 911.4 886.4" xml:space="preserve">
  <style>
    .st1{fill:#ebc369}
  </style>
  <path d="M911 388.9s-18.1-5.4-26.4-9.8c9-5.1 17.9-10.1 26.9-15.2-28.2-.6-86.7.2-86.7.2-.5 8.3-.2 12.8-.4 20.3-.2 5.9.2 14 .1 21.5-54.1-.3-118.9-2.9-145.3-4.4 1.7-2.6 34.9-53.5 45.3-67.9 0 0 41.4-1 39.5-1 0 0-5.3-14-11-23.8-13-22.1-15.7-33.5-29.2-55.2-34.3-55.1-73.5-112-107.8-167.1-.8-12.1-1.2-25.7-1.2-25.7 18.1.4 45 .7 63 1.2 15 .4 30 .1 45 .1-11.8-4.2-20.5-8.2-55.3-19.2 18.6-5.3 33.7-8.9 58.5-17.1-19-1.2-32.8-2-121.2-1.8l.3 37.7-.1 26.1c-22.5 47.3-49.7 110.5-71.4 158.2-5.4 11.8-11.4 23.2-17.9 36.5-7.2-12.9-13.3-23.7-19.3-34.7-101.7-187.4-121.1-200-121.1-200l.4-16.1c57.9 2.4 98 3.5 113.7 4.4-10-3.9-44.4-13.3-59.4-20.2 21.4-2.7 39.4-5 56.7-7.2C479.3 7.8 367 0 366.6 0l.5 47.2c-23.5 62-129 276.1-129 276.1l-13.6 1.1v-24.3c5-.9 14.7-.5 14.7-.5s.5-14.1.8-19c-10.4-.7-75.5.8-90.5.9l1.1 18.5c12.9.1 21.4.6 21.4.6.7 11.9 1.2 24.5 1.2 24.5-11.7.5-39.7-.3-39.7-.3-19.5 37-48.1 90.9-68.7 127.2-6.3 11.1-12.1 22.4-19.8 36.8 16.2-1.5 59.6-4.6 59.6-4.6.9 2.1 4.3 16.1 9.4 31 0 0-52.5 6.5-81.7 9.2-.1 1.6 1.6 10.9 1.5 12.5 4.8-.5 7.3-.4 11.1-1 0 .1 2.3 28.1 2.5 29.5 27.3-3.7 51.5-5.6 76.2-9C107.4 576.2 46 642.9 0 691.9c20.7-.3-20.7.6 134.4 0 .6 0 4.8 14.3 5.3 15.5.8 2.3 1.7 4.6 2.6 6.9l-84.4 27.6 4.9 15.1 11.9-3.9 8.3 21.7c-1.8.5-3.6.9-5.5 1.2 1.3 4.6 3.2 9 5.4 13.2.1.1.2.3.3.4.2.1.4-.2.5 0 4.8 13.7 38.9 58.5 50.5 64 16.3 7.7 45 17.7 66.5 18.7 17.1.8 90.8-.6 111.8 0 62.6 1.8 95.4 0 155.2 0 52.8 0 110.4 11.9 168.1 10.5 5.6-.1 11.3 0 16.9.2 40.5 1.1 89.7 3.5 130.2 3.5 0 0 3.1-64.6 3.1-64.9 0 0 31.4-5.5 31.9-5.6-27.7-10.8-33-5.5-31.7-21.8 2.1-26.8 1.7-66 3.9-92.8l63.6 9.3c-3.9-3-65.5-32.7-65.5-32.7 0-15.2-3.2-34.7-12.9-169.7 0 0 2.6.2 22.4 1.3 41.1 2.4 57.8 5.8 103.8 9.5-7.1-20.3-15.1-40.2-24.1-59.6-.2-.4-23.9-53.2-22.4-53.2-7.2 0-14.5.1-21.7.1 0-4-.3-16-.3-16 23.9-1.2 33.8.4 78-1.5zM89.5 772.6l-8.3-21.8 10.8-3.5 7.6 22.3c-.8.2-1.7.4-2.5.7-2.6.7-5.1 1.5-7.6 2.3zm16.6-4.7l-7.7-22.7 10.3-3.4 8.9 23h-.1c-3.8 1.1-7.6 2.1-11.4 3.1zm18.1-4.9l-9-23.3 11.2-3.7c1.8 5.1 5.8 16.7 8.2 23.8-3.5 1.1-6.9 2.2-10.4 3.2zm16.9-5.3c-2.4-7-6.4-18.6-8.2-23.8l15-4.9c.5 1.4 1.1 2.8 1.6 4.1 2.5 6.3 4.8 12.5 8.1 18.3-5.4 2.4-11 4.4-16.5 6.3zM631.4 574c-16.1-12.4-31.3-24.8-51.2-38.7 1.2.5 28.9-17.5 49-29.5 15.3 0 57-2.7 133.4 2.2 0 0 .8 3.4 3.1 67.1L631.4 574zm133.1 12.7V655h-13.8v-68.3h13.8zm-22.2.7v68.3h-13.8v-68.3h13.8zm-22.2-.7V655h-13.8v-68.3h13.8zm-21.6 0V655h-13.8v-68.3h13.8zm-34.2 0h13.8v30h-13.8v-30zm33.9 266.7H686v-39.2h12.2v39.2zm18.8 18.7h-12.2v-57.9H717v57.9zm18.8 0h-12.2v-57.9h12.2v57.9zm18.7 0h-12.2v-57.9h12.2v57.9zm18.8 0h-12.2v-57.9h12.2v57.9zm3.7-175.6s-.1 6.3-.2 9.7c-1.3 91-2.1 96-2.1 96h-97.9c20.6-35.6 40.1-69.3 59.5-103 12.5-1 40.7-2.7 40.7-2.7z" fill="#011e48"/>
  <path class="st1" d="M593.1 316.6h43.1c4.3 0 7.8-3.3 8.1-7.5l4.6-56.3c.2-1.9-.4-3.8-1.5-5.4l-26.5-37c-3.3-4.6-10.1-4.6-13.3.1l-26.6 38c-1.1 1.6-1.6 3.5-1.4 5.5l5.4 55.4c.3 4 3.9 7.2 8.1 7.2zM373.2 584.9h-58.1c-1.4 0-2.5-1.1-2.5-2.5v-84.8c0-1.4 1.1-2.5 2.5-2.5h58.1c1.4 0 2.5 1.1 2.5 2.5v84.8c.1 1.3-1.1 2.5-2.5 2.5zM443.6 584.9h-58.1c-1.4 0-2.5-1.1-2.5-2.5v-84.8c0-1.4 1.1-2.5 2.5-2.5h58.1c1.4 0 2.5 1.1 2.5 2.5v84.8c0 1.3-1.1 2.5-2.5 2.5zM396.7 761.3h-39.1c-1.1 0-2.1-.9-2.1-2.1v-82.4c0-1.1.9-2.1 2.1-2.1h39.1c1.1 0 2.1.9 2.1 2.1v82.4c0 1.2-1 2.1-2.1 2.1zM414.8 761.3h-11.1c-.6 0-1.2-.5-1.2-1.2v-84.2c0-.6.5-1.2 1.2-1.2h11.1c.6 0 1.2.5 1.2 1.2v84.2c-.1.7-.6 1.2-1.2 1.2zM350.6 762.5h-11.1c-.6 0-1.2-.5-1.2-1.2v-84.2c0-.6.5-1.2 1.2-1.2h11.1c.6 0 1.2.5 1.2 1.2v84.2c-.1.7-.6 1.2-1.2 1.2zM350.5 292.2h51.6c5.1 0 9.3-3.9 9.8-9l5.5-67.4c.2-2.3-.4-4.6-1.8-6.5L383.8 165c-3.9-5.5-12.1-5.4-16 .1L336 210.5c-1.3 1.9-2 4.2-1.7 6.6l6.5 66.3c.5 5 4.7 8.8 9.7 8.8zM369.9 434.9h-46.1c-1.3 0-2.4-1.1-2.4-2.4v-94.3c0-1.3 1.1-2.4 2.4-2.4h46.1c1.3 0 2.4 1.1 2.4 2.4v94.3c0 1.3-1 2.4-2.4 2.4zM430.4 434.9h-46.1c-1.3 0-2.4-1.1-2.4-2.4v-94.3c0-1.3 1.1-2.4 2.4-2.4h46.1c1.3 0 2.4 1.1 2.4 2.4v94.3c0 1.3-1.1 2.4-2.4 2.4zM604.9 426h-36.8c-1.1 0-1.9-.9-1.9-1.9v-77.4c0-1.1.9-1.9 1.9-1.9h36.8c1.1 0 1.9.9 1.9 1.9V424c.1 1.1-.8 2-1.9 2zM653.5 426h-36.8c-1.1 0-1.9-.9-1.9-1.9v-77.4c0-1.1.9-1.9 1.9-1.9h36.8c1.1 0 1.9.9 1.9 1.9V424c0 1.1-.8 2-1.9 2zM203.6 539.9H170c-.8 0-1.4-.6-1.4-1.4v-45.7c0-.8.6-1.4 1.4-1.4h33.6c.8 0 1.4.6 1.4 1.4v45.7c0 .8-.6 1.4-1.4 1.4zM247.6 539.9H214c-.8 0-1.4-.6-1.4-1.4v-45.7c0-.8.6-1.4 1.4-1.4h33.6c.8 0 1.4.6 1.4 1.4v45.7c.1.8-.6 1.4-1.4 1.4zM247.4 714h-47.1c-.9 0-1.7-.8-1.7-1.7v-45.2c0-.9.8-1.7 1.7-1.7h47.1c.9 0 1.7.8 1.7 1.7v45.2c0 .9-.8 1.7-1.7 1.7zM590.4 740.3H542c-1.1 0-2.1-.9-2.1-2.1v-67.8c0-1.1.9-2.1 2.1-2.1h48.4c1.1 0 2.1.9 2.1 2.1v67.8c0 1.2-.9 2.1-2.1 2.1z"/>
</svg>
