<svg version="1.1" id="face_x5F_citrouille" xmlns="http://www.w3.org/2000/svg" x="0" y="0" viewBox="0 0 256.5 271.6" xml:space="preserve">
  <style>
    .st0{fill:#cc6e06; opacity: 0.5}
  </style>
  <g id="XMLID_3_">
    <path id="XMLID_61_" class="st0" d="M84.3 55.1c-9.4 0-18.7 3.5-27 10.1-32-.3-57.3 42-57.3 96 0 53.8 25 96 57 96h.3c8.3 6.6 17.6 10.1 27 10.1 7 0 13.7-1.8 20.1-5.4 7.4 6.4 15.5 9.7 23.9 9.7 8.4 0 16.5-3.3 23.9-9.7 6.4 3.6 13.2 5.4 20.1 5.4 9.4 0 18.7-3.5 27-10.1h.3c32 0 57-42.2 57-96s-25-96-57-96h-.3c-8.3-6.6-17.6-10.1-27-10.1-6.9 0-13.7 1.8-20.1 5.4-2.6-2.3-5.3-4.1-8.1-5.6-3.1-11.3-8.6-25.8-18.2-36.9C110.7.6 82.1-5.2 62.1 5.1l-1.3.7-.9 1.1c-3.6 4.2-8.4 14.5-3.3 26.5 3.9 9.2 13.7 15.3 14.8 15.9l3.8 2.3 3.8-2.1c.1-.1 11.8-6.4 22.7-2.9 4.3 1.4 7.9 4.2 11.1 8.4-2.9 1.5-5.6 3.4-8.3 5.7-6.5-3.7-13.3-5.6-20.2-5.6zm22-22.9c-3.9-1.3-7.9-1.8-11.6-1.8-7.6 0-14.3 2.1-18.5 3.8-2.1-1.7-4.6-4.2-5.7-6.8-1.9-4.5-.7-8 .2-9.7 13.7-6 33.7-1.5 43.9 10.2 4.8 5.5 8.3 12.2 11 18.8-5.2-7.1-11.6-12-19.3-14.5zm4.6 43.1c11.3-12.3 23.5-12.3 34.8 0 2.6 2.8 6.9 3.3 10 1 11.7-8.7 24.5-7.9 36 2.4 1.7 1.5 4 2.2 6.2 1.8.6 0 1.1-.1 1.7-.1 22.7 0 41.9 37.1 41.9 80.9 0 43.9-19.2 80.9-41.9 80.9-.5 0-1 0-1.6-.1-2.2-.4-4.6.3-6.3 1.8-11.4 10.2-24.1 11.1-35.7 2.6-.6-.5-1.3-.9-2-1.2-2.9-1.1-6.2-.4-8.3 1.9-11.3 12.3-23.5 12.3-34.8 0-1.5-1.6-3.5-2.4-5.5-2.4-.9 0-1.8.2-2.7.5-.7.3-1.4.7-1.9 1.1-11.6 8.6-24.4 7.7-35.8-2.5-1.7-1.5-4-2.2-6.2-1.8-.6 0-1.1.1-1.7.1-22.7 0-41.9-37.1-41.9-80.9 0-43.9 19.2-80.9 41.9-80.9.5 0 1 0 1.5.1 2.2.4 4.6-.2 6.3-1.8 11.5-10.3 24.3-11.1 36-2.4 3 2.2 7.4 1.8 10-1z"/>
    <path id="XMLID_52_" class="st0" d="M103.6 135c0-12.6-7.7-22.9-17.3-22.9-9.5 0-17.3 10.3-17.3 22.9 0 12.6 7.7 22.9 17.3 22.9 9.6 0 17.3-10.2 17.3-22.9z"/>
    <ellipse id="XMLID_53_" class="st0" cx="170.2" cy="135" rx="17.3" ry="22.9"/>
    <path id="XMLID_54_" class="st0" d="M86 172.9H63.1c-2.3 0-3.8 2.4-2.8 4.5 5.7 11.7 24.7 42.3 68 42.3s62.3-30.5 68-42.3c1-2.1-.5-4.5-2.8-4.5h-22.9c-1.3 0-2.3 1-2.3 2.3v10c0 1.3-1 2.3-2.3 2.3h-10.3c-1.3 0-2.3-1-2.3-2.3v-10c0-1.3-1-2.3-2.3-2.3h-45.4c-1.3 0-2.3 1-2.3 2.3v10c0 1.3-1 2.3-2.3 2.3H90.6c-1.3 0-2.3-1-2.3-2.3v-10c0-1.2-1-2.3-2.3-2.3z"/>
  </g>
</svg>
